<svg width="20" height="15" viewBox="0 0 20 15" fill="none" xmlns="http://www.w3.org/2000/svg">
<path d="M9.70477 0C4.35532 0 0 4.35532 0 9.70477C0 11.4694 0.473283 13.1311 1.29925 14.5589C1.37663 14.6929 1.4879 14.8042 1.62188 14.8816C1.75587 14.959 1.90786 14.9999 2.06261 15L17.3469 14.9983C17.5017 14.9981 17.6537 14.9573 17.7877 14.8799C17.9216 14.8025 18.0329 14.6912 18.1103 14.5572C18.9362 13.1296 19.4095 11.4694 19.4095 9.70477C19.4095 4.35532 15.0542 0 9.70477 0ZM9.70477 1.7645C14.1007 1.7645 17.645 5.30887 17.645 9.70477C17.645 10.9848 17.3032 12.1659 16.7679 13.2338H15.8581C15.8727 13.1705 15.8802 13.1057 15.8805 13.0408C15.8805 12.8068 15.7876 12.5824 15.6221 12.4169C15.4567 12.2515 15.2323 12.1585 14.9983 12.1585C14.7643 12.1585 14.5399 12.2515 14.3744 12.4169C14.209 12.5824 14.116 12.8068 14.116 13.0408C14.1164 13.1057 14.1239 13.1705 14.1384 13.2338L5.17289 13.2355C5.25146 13.1011 5.29308 12.9483 5.29351 12.7926C5.29351 12.5587 5.20056 12.3343 5.0351 12.1688C4.86965 12.0033 4.64525 11.9104 4.41126 11.9104C4.17727 11.9104 3.95287 12.0033 3.78741 12.1688C3.62196 12.3343 3.52901 12.5587 3.52901 12.7926C3.52944 12.9483 3.57105 13.1011 3.64963 13.2355H2.64331C2.10758 12.1671 1.7645 10.9855 1.7645 9.70477C1.7645 5.30887 5.30887 1.7645 9.70477 1.7645ZM9.70477 2.64675C9.47078 2.64675 9.24638 2.73971 9.08092 2.90516C8.91547 3.07061 8.82252 3.29502 8.82252 3.52901C8.82252 3.76299 8.91547 3.9874 9.08092 4.15285C9.24638 4.31831 9.47078 4.41126 9.70477 4.41126C9.93875 4.41126 10.1632 4.31831 10.3286 4.15285C10.4941 3.9874 10.587 3.76299 10.587 3.52901C10.587 3.29502 10.4941 3.07061 10.3286 2.90516C10.1632 2.73971 9.93875 2.64675 9.70477 2.64675ZM6.61689 3.52901C6.3829 3.52901 6.1585 3.62196 5.99304 3.78741C5.82759 3.95287 5.73464 4.17727 5.73464 4.41126C5.73464 4.64525 5.82759 4.86965 5.99304 5.0351C6.1585 5.20056 6.3829 5.29351 6.61689 5.29351C6.85087 5.29351 7.07528 5.20056 7.24073 5.0351C7.40619 4.86965 7.49914 4.64525 7.49914 4.41126C7.49914 4.17727 7.40619 3.95287 7.24073 3.78741C7.07528 3.62196 6.85087 3.52901 6.61689 3.52901ZM12.7375 3.52901C12.5035 3.52901 12.2791 3.62196 12.1137 3.78741C11.9482 3.95287 11.8553 4.17727 11.8553 4.41126C11.8553 4.64525 11.9482 4.86965 12.1137 5.0351C12.2791 5.20056 12.5035 5.29351 12.7375 5.29351C12.9715 5.29351 13.1959 5.20056 13.3614 5.0351C13.5268 4.86965 13.6198 4.64525 13.6198 4.41126C13.6198 4.17727 13.5268 3.95287 13.3614 3.78741C13.1959 3.62196 12.9715 3.52901 12.7375 3.52901ZM15.0345 5.64331L10.5922 8.18151C10.3229 8.02407 10.0167 7.94082 9.70477 7.94026C9.23679 7.94026 8.78798 8.12617 8.45708 8.45708C8.12617 8.78798 7.94026 9.23679 7.94026 9.70477C7.94026 10.1727 8.12617 10.6216 8.45708 10.9525C8.78798 11.2834 9.23679 11.4693 9.70477 11.4693C10.1713 11.4693 10.6188 11.2846 10.9494 10.9555C11.2801 10.6265 11.467 10.1799 11.4693 9.71338L15.9098 7.17519L15.0345 5.64331ZM4.41126 5.73464C4.17727 5.73464 3.95287 5.82759 3.78741 5.99304C3.62196 6.1585 3.52901 6.3829 3.52901 6.61689C3.52901 6.85087 3.62196 7.07528 3.78741 7.24073C3.95287 7.40619 4.17727 7.49914 4.41126 7.49914C4.64525 7.49914 4.86965 7.40619 5.0351 7.24073C5.20056 7.07528 5.29351 6.85087 5.29351 6.61689C5.29351 6.3829 5.20056 6.1585 5.0351 5.99304C4.86965 5.82759 4.64525 5.73464 4.41126 5.73464ZM3.52901 8.82252C3.29502 8.82252 3.07061 8.91547 2.90516 9.08092C2.73971 9.24638 2.64675 9.47078 2.64675 9.70477C2.64675 9.93875 2.73971 10.1632 2.90516 10.3286C3.07061 10.4941 3.29502 10.587 3.52901 10.587C3.76299 10.587 3.9874 10.4941 4.15285 10.3286C4.31831 10.1632 4.41126 9.93875 4.41126 9.70477C4.41126 9.47078 4.31831 9.24638 4.15285 9.08092C3.9874 8.91547 3.76299 8.82252 3.52901 8.82252ZM15.8805 8.82252C15.6465 8.82252 15.4221 8.91547 15.2567 9.08092C15.0912 9.24638 14.9983 9.47078 14.9983 9.70477C14.9983 9.93875 15.0912 10.1632 15.2567 10.3286C15.4221 10.4941 15.6465 10.587 15.8805 10.587C16.1145 10.587 16.3389 10.4941 16.5044 10.3286C16.6698 10.1632 16.7628 9.93875 16.7628 9.70477C16.7628 9.47078 16.6698 9.24638 16.5044 9.08092C16.3389 8.91547 16.1145 8.82252 15.8805 8.82252Z" fill="white"/>
</svg>
