<svg width="18" height="18" viewBox="0 0 18 18" fill="none" xmlns="http://www.w3.org/2000/svg">
<path d="M4.00001 0C1.80271 0 7.45781e-06 1.80271 7.45781e-06 4C7.45781e-06 6.19729 1.80271 8 4.00001 8C6.1973 8 8.00001 6.19729 8.00001 4C8.00001 1.80271 6.1973 0 4.00001 0ZM12 0C10.9069 0 10 0.906937 10 2V6C10 7.09306 10.9069 8 12 8H16C17.0931 8 18 7.09306 18 6V2C18 0.906937 17.0931 0 16 0H12ZM4.00001 2C5.11642 2 6.00001 2.88359 6.00001 4C6.00001 5.11641 5.11642 6 4.00001 6C2.88359 6 2.00001 5.11641 2.00001 4C2.00001 2.88359 2.88359 2 4.00001 2ZM12 2H16V6H12V2ZM13.5274 9.73438C13.307 9.72799 13.0907 9.7946 12.9121 9.92383L9.6172 12.3184C9.44653 12.4424 9.31948 12.6173 9.25423 12.818C9.18898 13.0187 9.18887 13.2348 9.25391 13.4355L10.5137 17.3086C10.5789 17.5095 10.706 17.6847 10.8769 17.8089C11.0478 17.9331 11.2536 18 11.4649 18H15.5352C15.7464 18 15.9522 17.9331 16.1231 17.8089C16.294 17.6847 16.4211 17.5095 16.4863 17.3086L17.7461 13.4355C17.8111 13.2348 17.811 13.0187 17.7458 12.818C17.6805 12.6173 17.5535 12.4424 17.3828 12.3184L14.0879 9.92383C13.9244 9.80558 13.729 9.73954 13.5274 9.73438ZM4.00782 10C3.82077 9.99853 3.63706 10.0495 3.47756 10.1473C3.31805 10.245 3.18914 10.3854 3.10548 10.5527L0.105476 16.5527C0.0292589 16.7052 -0.00672079 16.8746 0.000953026 17.0449C0.00862684 17.2152 0.0596996 17.3807 0.149322 17.5257C0.238945 17.6707 0.364142 17.7904 0.513028 17.8734C0.661913 17.9564 0.829545 18 1.00001 18H7.00001C7.17047 18 7.3381 17.9564 7.48699 17.8734C7.63587 17.7904 7.76107 17.6707 7.85069 17.5257C7.94032 17.3807 7.99139 17.2152 7.99906 17.0449C8.00674 16.8746 7.97076 16.7052 7.89454 16.5527L4.89454 10.5527C4.81206 10.3878 4.68559 10.2489 4.5291 10.1514C4.37262 10.0538 4.19221 10.0014 4.00782 10V10ZM13.5 11.9688L15.6191 13.5098L14.8086 16H12.1895L11.3809 13.5098L13.5 11.9688ZM4.00001 13.2363L5.38282 16H2.61719L4.00001 13.2363Z" fill="white"/>
</svg>
