<svg width="16" height="17" viewBox="0 0 16 17" fill="none" xmlns="http://www.w3.org/2000/svg">
<path d="M4.875 0.25C4.52832 0.25 4.25 0.52832 4.25 0.875V1.5H0.5V2.75H4.25V3.375C4.25 3.72168 4.52832 4 4.875 4H7.375C7.72168 4 8 3.72168 8 3.375V2.75H15.5V1.5H8V0.875C8 0.52832 7.72168 0.25 7.375 0.25H4.875ZM5.5 1.5H6.75V2.75H5.5V1.5ZM9.875 6.5C9.52832 6.5 9.25 6.77832 9.25 7.125V7.75H0.5V9H9.25V9.625C9.25 9.97168 9.52832 10.25 9.875 10.25H12.375C12.7217 10.25 13 9.97168 13 9.625V9H15.5V7.75H13V7.125C13 6.77832 12.7217 6.5 12.375 6.5H9.875ZM10.5 7.75H11.75V9H10.5V7.75ZM2.375 12.75C2.02832 12.75 1.75 13.0283 1.75 13.375V14H0.5V15.25H1.75V15.875C1.75 16.2217 2.02832 16.5 2.375 16.5H4.875C5.22168 16.5 5.5 16.2217 5.5 15.875V15.25H15.5V14H5.5V13.375C5.5 13.0283 5.22168 12.75 4.875 12.75H2.375ZM3 14H4.25V15.25H3V14Z" fill="#4999D0"/>
</svg>
