<svg width="38" height="35" viewBox="0 0 38 35" fill="none" xmlns="http://www.w3.org/2000/svg">
<path d="M0.556805 1.06653C1.15073 2.33057 11.5444 21.4886 11.73 21.6466C11.8785 21.8046 13.7716 18.289 13.7716 17.8545C13.7716 17.4595 5.08549 1.34304 4.41732 0.474013C4.1946 0.197506 3.19235 0 2.04162 0H0L0.556805 1.06653Z" fill="white"/>
<path d="M7.86948 0.869014C8.31492 1.81704 15.2935 14.7339 15.442 14.9314C15.5905 15.1289 17.4836 11.3763 17.4465 10.9023C17.4465 10.6653 16.1473 8.13722 14.5883 5.33264L11.73 0.197495L9.57701 0.0789919C7.42403 -0.0395114 7.42403 -0.0395114 7.86948 0.869014Z" fill="white"/>
<path d="M24.0169 4.93762C22.6805 7.42619 21.5669 9.63826 21.5669 9.87526C21.5669 10.1518 22.2722 10.2703 23.4972 10.1913L25.4646 10.0728L26.838 7.5447C27.5804 6.16216 28.3971 4.81912 28.6198 4.58211C29.1395 4.0291 31.6637 3.95009 31.5152 4.54261C31.441 4.77962 30.4758 6.67567 29.3622 8.80873L27.3206 12.6403H19.7852L16.5928 18.6445L13.4005 24.6092L16.2216 29.9023C17.7807 32.8254 19.1541 35.077 19.2655 34.998C19.3397 34.8795 21.27 31.4429 23.4972 27.3743L27.5062 19.948L25.6131 19.8295C24.5366 19.7505 23.5343 19.869 23.3487 20.0666C23.126 20.3036 22.198 21.9231 21.1957 23.7402C20.2306 25.5572 19.3026 27.0187 19.1541 26.9792C19.0056 26.9792 18.5602 26.4262 18.189 25.7942L17.5579 24.6882L19.6738 20.7381L21.8268 16.788L29.4736 16.3929L33.5197 8.88773C35.784 4.74012 37.6772 1.14551 37.7885 0.869006C37.937 0.513496 36.6749 0.394993 32.2205 0.394993H26.5039L24.0169 4.93762Z" fill="white"/>
</svg>
