<svg width="15" height="15" viewBox="0 0 15 15" fill="none" xmlns="http://www.w3.org/2000/svg">
<path d="M1.66667 0V1.66667H0V6.66667H1.66667V8.33333H0V13.3333H1.66667V15H6.66667V13.3333H8.33333V15H13.3333V13.3333H15V8.33333H13.3333V6.66667H15V5.83333V1.66667H13.3333V0H8.33333V1.66667H6.66667V0H1.66667ZM3.33333 1.66667H5V3.33333H10V1.66667H11.6667V3.33333H13.3333V5H11.6667V10H13.3333V11.6667H11.6667V13.3333H10V11.6667H5V13.3333H3.33333V11.6667H1.66667V10H3.33333V5H1.66667V3.33333H3.33333V1.66667ZM5 5V10H10V9.16667V5H5ZM6.66667 6.66667H8.33333V8.33333H6.66667V6.66667Z" fill="#4F7ED7"/>
</svg>
