<svg width="18" height="15" viewBox="0 0 18 15" fill="none" xmlns="http://www.w3.org/2000/svg">
<path d="M12 0C10.9069 0 10 0.906937 10 2V6C10 7.09306 10.9069 8 12 8H15.0098L10.5215 14.0293H13.0156L18 7.33203V5.00195V2C18 0.906937 17.0931 0 16 0H12ZM2 0.0292969C0.906937 0.0292969 0 0.936234 0 2.0293V6.0293C0 7.12236 0.906937 8.0293 2 8.0293H5.00977L0.542969 14.0293H3.03516L8 7.35938V7.0293V5.0293V2.0293C8 0.936234 7.09306 0.0292969 6 0.0292969H2ZM12 2H16V6H12V2ZM2 2.0293H6V5.0293V6.0293H2V2.0293Z" fill="white"/>
</svg>
