<svg width="14" height="13" viewBox="0 0 14 13" fill="none" xmlns="http://www.w3.org/2000/svg">
<path d="M12.086 10.0844C10.3047 10.0844 8.52345 10.0844 6.73751 10.0844C5.78126 10.0844 4.82033 10.0844 3.86408 10.0844C3.06251 10.0844 2.21876 9.87812 2.21876 8.875C2.21876 7.88125 2.21876 6.89219 2.21876 5.89844C2.21876 5.00781 2.26095 3.94844 3.45158 3.94844C5.0922 3.94844 6.73283 3.94844 8.37814 3.94844C8.37814 4.50156 8.37814 5.05 8.37814 5.60312C8.37814 5.85625 8.67345 6.04844 8.89845 5.90312C10.225 5.05469 11.5516 4.20156 12.8781 3.35312C13.1031 3.20781 13.0985 2.89844 12.8781 2.75781C11.5516 1.90937 10.225 1.05625 8.89845 0.20781C8.75783 0.118747 8.6172 0.146872 8.52345 0.231247C8.43908 0.28281 8.38283 0.37656 8.38283 0.503122C8.38283 0.962497 8.38283 1.42187 8.38283 1.88125C7.60939 1.88125 6.83595 1.88125 6.0672 1.88125C5.03126 1.88125 3.91564 1.76406 2.88908 1.92812C-0.462488 2.47187 0.160949 6.33437 0.160949 8.80469C0.160949 10.4828 1.40782 12.0437 3.15157 12.1328C3.94376 12.175 4.74533 12.1469 5.53751 12.1469C7.7172 12.1469 9.90158 12.1469 12.0813 12.1469C13.4078 12.1516 13.4172 10.0844 12.086 10.0844Z" fill="white"/>
</svg>
