<svg width="15" height="15" viewBox="0 0 15 15" fill="none" xmlns="http://www.w3.org/2000/svg">
<path d="M0 0V1.66667H1.66667V0H0ZM3.33333 0V1.66667H5V0H3.33333ZM6.66667 0V1.66667H8.33333V0H6.66667ZM10 0V1.66667H11.6667V0H10ZM13.3333 0V1.66667H15V0H13.3333ZM0 3.33333V5H1.66667V3.33333H0ZM13.3333 3.33333V5H15V3.33333H13.3333ZM1.66667 6.66667C0.755781 6.66667 0 7.42245 0 8.33333V13.3333C0 14.2442 0.755781 15 1.66667 15H6.66667C7.57755 15 8.33333 14.2442 8.33333 13.3333V8.33333C8.33333 7.42245 7.57755 6.66667 6.66667 6.66667H1.66667ZM13.3333 6.66667V8.33333H15V6.66667H13.3333ZM1.66667 8.33333H6.66667V13.3333H1.66667V8.33333ZM13.3333 10V11.6667H15V10H13.3333ZM10 13.3333V15H11.6667V13.3333H10ZM13.3333 13.3333V15H15V13.3333H13.3333Z" fill="white"/>
</svg>
