<svg width="20" height="20" viewBox="0 0 20 20" fill="none" xmlns="http://www.w3.org/2000/svg">
<path d="M8.16668 0.833313C4.12745 0.833313 0.833344 4.12742 0.833344 8.16665C0.833344 12.2059 4.12745 15.5 8.16668 15.5C10.0219 15.5 11.7157 14.8006 13.0096 13.6577L13.6667 14.3148V15.5L17.3333 19.1666L19.1667 17.3333L15.5 13.6666H14.3148L13.6577 13.0096C14.8006 11.7157 15.5 10.0219 15.5 8.16665C15.5 4.12742 12.2059 0.833313 8.16668 0.833313ZM8.16668 2.66665C11.2151 2.66665 13.6667 5.11822 13.6667 8.16665C13.6667 11.2151 11.2151 13.6666 8.16668 13.6666C5.11825 13.6666 2.66668 11.2151 2.66668 8.16665C2.66668 5.11822 5.11825 2.66665 8.16668 2.66665ZM5.41668 7.24998C5.17356 7.24998 4.9404 7.34656 4.7685 7.51847C4.59659 7.69037 4.50001 7.92353 4.50001 8.16665C4.50001 8.40976 4.59659 8.64292 4.7685 8.81483C4.9404 8.98674 5.17356 9.08331 5.41668 9.08331C5.65979 9.08331 5.89295 8.98674 6.06486 8.81483C6.23677 8.64292 6.33334 8.40976 6.33334 8.16665C6.33334 7.92353 6.23677 7.69037 6.06486 7.51847C5.89295 7.34656 5.65979 7.24998 5.41668 7.24998ZM8.16668 7.24998C7.92356 7.24998 7.6904 7.34656 7.5185 7.51847C7.34659 7.69037 7.25001 7.92353 7.25001 8.16665C7.25001 8.40976 7.34659 8.64292 7.5185 8.81483C7.6904 8.98674 7.92356 9.08331 8.16668 9.08331C8.40979 9.08331 8.64295 8.98674 8.81486 8.81483C8.98677 8.64292 9.08334 8.40976 9.08334 8.16665C9.08334 7.92353 8.98677 7.69037 8.81486 7.51847C8.64295 7.34656 8.40979 7.24998 8.16668 7.24998ZM10.9167 7.24998C10.6736 7.24998 10.4404 7.34656 10.2685 7.51847C10.0966 7.69037 10 7.92353 10 8.16665C10 8.40976 10.0966 8.64292 10.2685 8.81483C10.4404 8.98674 10.6736 9.08331 10.9167 9.08331C11.1598 9.08331 11.3929 8.98674 11.5649 8.81483C11.7368 8.64292 11.8333 8.40976 11.8333 8.16665C11.8333 7.92353 11.7368 7.69037 11.5649 7.51847C11.3929 7.34656 11.1598 7.24998 10.9167 7.24998Z" fill="#4999D0"/>
</svg>
