<svg width="18" height="15" viewBox="0 0 18 15" fill="none" xmlns="http://www.w3.org/2000/svg">
<path d="M9 0C7.28175 0 5.67061 0.85343 4.69336 2.25293C2.08861 2.34893 0 4.49775 0 7.125C0 9.813 2.187 12 4.875 12H9.10547C9.04322 11.7592 9 11.5103 9 11.25C9 10.9897 9.04322 10.7408 9.10547 10.5H4.875C3.01425 10.5 1.5 8.98575 1.5 7.125C1.5 5.26425 3.01425 3.75 4.875 3.75L5.51953 3.78516L5.75098 3.38525C6.41998 2.222 7.665 1.5 9 1.5C10.854 1.5 12.4085 2.82963 12.6987 4.66113L12.8115 5.38184L13.6362 5.27344C13.715 5.26294 13.7933 5.25 13.875 5.25C14.6333 5.25 15.311 5.57704 15.791 6.09229C16.019 6.03679 16.2548 6 16.5 6C16.908 6 17.2959 6.08298 17.6499 6.22998C17.0319 4.81773 15.6518 3.81293 14.0288 3.75293C13.3793 1.54193 11.3617 0 9 0ZM16.5 7.5C16.1182 7.50042 15.7509 7.64643 15.473 7.90826C15.1951 8.1701 15.0275 8.52806 15.0044 8.90918L12.8247 9.99902C12.5801 9.83716 12.2933 9.75058 12 9.75C11.6022 9.75 11.2206 9.90804 10.9393 10.1893C10.658 10.4706 10.5 10.8522 10.5 11.25C10.5 11.6478 10.658 12.0294 10.9393 12.3107C11.2206 12.592 11.6022 12.75 12 12.75C12.2938 12.7497 12.5811 12.6631 12.8262 12.501L15.0044 13.5908C15.0275 13.9719 15.1951 14.3299 15.473 14.5917C15.7509 14.8536 16.1182 14.9996 16.5 15C16.8978 15 17.2794 14.842 17.5607 14.5607C17.842 14.2794 18 13.8978 18 13.5C18 13.1022 17.842 12.7206 17.5607 12.4393C17.2794 12.158 16.8978 12 16.5 12C16.2062 12.0003 15.9189 12.0869 15.6738 12.249L13.6772 11.25L15.6753 10.251C15.9199 10.4128 16.2067 10.4994 16.5 10.5C16.8978 10.5 17.2794 10.342 17.5607 10.0607C17.842 9.77936 18 9.39782 18 9C18 8.60218 17.842 8.22064 17.5607 7.93934C17.2794 7.65804 16.8978 7.5 16.5 7.5Z" fill="#4F7ED7"/>
</svg>
