<svg width="20" height="20" viewBox="0 0 20 20" fill="none" xmlns="http://www.w3.org/2000/svg">
<path d="M10 0C4.24101 0 -0.380599 4.86689 0.0254012 10.7129C0.392401 16.0019 5.00565 20 10.3067 20H11C12.105 20 13 19.105 13 18V15C13 13.895 13.895 13 15 13H18C19.105 13 20 12.105 20 11V10.3066C20 5.00564 16.0029 0.392391 10.7149 0.0253906C10.4749 0.00839062 10.236 0 10 0ZM10 2C10.19 2 10.3812 2.00653 10.5742 2.01953C14.7382 2.30853 18 5.94864 18 10.3066V11H15C12.794 11 11 12.794 11 15V18H10.3067C5.94865 18 2.30754 14.7372 2.01954 10.5742C1.86354 8.32422 2.61945 6.18392 4.14845 4.54492C5.67945 2.90392 7.75801 2 10 2ZM10.5 3C10.1022 3 9.72065 3.15804 9.43935 3.43934C9.15805 3.72064 9.00001 4.10218 9.00001 4.5C9.00001 4.89782 9.15805 5.27936 9.43935 5.56066C9.72065 5.84196 10.1022 6 10.5 6C10.8978 6 11.2794 5.84196 11.5607 5.56066C11.842 5.27936 12 4.89782 12 4.5C12 4.10218 11.842 3.72064 11.5607 3.43934C11.2794 3.15804 10.8978 3 10.5 3V3ZM6.50001 4C6.10219 4 5.72065 4.15804 5.43935 4.43934C5.15805 4.72064 5.00001 5.10218 5.00001 5.5C5.00001 5.89782 5.15805 6.27936 5.43935 6.56066C5.72065 6.84196 6.10219 7 6.50001 7C6.89784 7 7.27937 6.84196 7.56067 6.56066C7.84198 6.27936 8.00001 5.89782 8.00001 5.5C8.00001 5.10218 7.84198 4.72064 7.56067 4.43934C7.27937 4.15804 6.89784 4 6.50001 4ZM14.5 5C14.1022 5 13.7207 5.15804 13.4394 5.43934C13.158 5.72064 13 6.10218 13 6.5C13 6.89782 13.158 7.27936 13.4394 7.56066C13.7207 7.84196 14.1022 8 14.5 8C14.8978 8 15.2794 7.84196 15.5607 7.56066C15.842 7.27936 16 6.89782 16 6.5C16 6.10218 15.842 5.72064 15.5607 5.43934C15.2794 5.15804 14.8978 5 14.5 5ZM4.50001 8C4.10219 8 3.72065 8.15804 3.43935 8.43934C3.15805 8.72064 3.00001 9.10218 3.00001 9.5C3.00001 9.89782 3.15805 10.2794 3.43935 10.5607C3.72065 10.842 4.10219 11 4.50001 11C4.89784 11 5.27937 10.842 5.56067 10.5607C5.84198 10.2794 6.00001 9.89782 6.00001 9.5C6.00001 9.10218 5.84198 8.72064 5.56067 8.43934C5.27937 8.15804 4.89784 8 4.50001 8ZM8.00001 12C7.46958 12 6.96087 12.2107 6.5858 12.5858C6.21072 12.9609 6.00001 13.4696 6.00001 14C6.00001 14.5304 6.21072 15.0391 6.5858 15.4142C6.96087 15.7893 7.46958 16 8.00001 16C8.53044 16 9.03915 15.7893 9.41422 15.4142C9.7893 15.0391 10 14.5304 10 14C10 13.4696 9.7893 12.9609 9.41422 12.5858C9.03915 12.2107 8.53044 12 8.00001 12Z" fill="white"/>
</svg>
