<svg width="14" height="13" viewBox="0 0 14 13" fill="none" xmlns="http://www.w3.org/2000/svg">
<path d="M11.2422 1.97029C10.2578 1.69841 9.02502 1.88122 8.02658 1.88122C7.18752 1.88122 6.34846 1.88122 5.50939 1.88122C5.50939 1.42185 5.50939 0.967161 5.50939 0.507786C5.50939 0.381223 5.45315 0.292161 5.37346 0.235911C5.27502 0.146848 5.13908 0.114036 4.99377 0.207786C3.66721 1.05622 2.34064 1.90935 1.01408 2.75779C0.789082 2.9031 0.793769 3.21247 1.01408 3.3531C2.34064 4.20154 3.66721 5.05466 4.99377 5.9031C5.21408 6.04372 5.50939 5.85622 5.50939 5.60779C5.50939 5.05466 5.50939 4.50153 5.50939 3.94841C7.12658 3.94841 8.74846 3.94841 10.3656 3.94841C11.411 3.94841 11.6641 4.72653 11.6641 5.6031C11.6641 6.67185 11.6641 7.73591 11.6641 8.80466C11.6641 9.71403 11.0031 10.0843 10.1969 10.0843C9.24533 10.0843 8.28908 10.0843 7.33752 10.0843C5.49533 10.0843 3.65314 10.0843 1.81096 10.0843C0.475019 10.0843 0.465644 12.1515 1.79689 12.1515C3.92502 12.1515 6.05315 12.1515 8.18127 12.1515C8.95002 12.1515 9.71408 12.1515 10.4828 12.1515C12.2735 12.1515 13.7313 10.6562 13.7313 8.87966C13.7313 6.38591 14.3641 2.83279 11.2422 1.97029Z" fill="white"/>
</svg>
